/* XPM */
static char *zero[] = {
/* columns rows colors chars-per-pixel */
"28 22 2 1 ",
"  c #F5F5DC",
". c #000000",
/* pixels */
"        ............        ",
"      ................      ",
"     ......      ......     ",
"    .....          .....    ",
"   .....            .....   ",
"   ....              ....   ",
"  ....                ....  ",
"  ....                ....  ",
"  ....                ....  ",
"  ....                ....  ",
"  ....                ....  ",
"  ....                ....  ",
"  ....                ....  ",
"  ....                ....  ",
"  ....                ....  ",
"   ....              ....   ",
"   .....            .....   ",
"    .....          .....    ",
"     ......      ......     ",
"      ................      ",
"        ............        ",
"                            ",
};


