/* XPM */
static char *cbc09073b19b429796a80fe7281fdbb5RERUGlGGyHYHGaMs[] = {
/* columns rows colors chars-per-pixel */
"40 60 2 1 ",
"  c #F5F5DC",
". c #EDDF55",
/* pixels */
"                                        ",
"                                        ",
"                                        ",
"                                        ",
"                                        ",
"          ....................          ",
"          .                   .         ",
"         .                    .         ",
"         .                     .        ",
"        .                      .        ",
"        .                       .       ",
"       .       ...........      .       ",
"       .      .           .      .      ",
"      .     ..             .     .      ",
"      .    .                .     .     ",
"     .     .                .     .     ",
"     .    .                 .     .     ",
"     .    .                 .     .     ",
"     .    .                 .     .     ",
"     .    .                 .     .     ",
"     .    .                 .     .     ",
"     .    .                 .     .     ",
"     .    .                 .     .     ",
"     .    .                 .     .     ",
"     .    .                 .     .     ",
"     .    .                 .     .     ",
"     .    .                 .     .     ",
"     .    .                 .     .     ",
"     .    .                 .     .     ",
"     .    .                 .     .     ",
"     .    .                 .     .     ",
"     .    .                 .     .     ",
"     .    .                 .     .     ",
"     .    .                 .     .     ",
"     .    .                 .     .     ",
"     .    .                 .     .     ",
"     .    .                 .     .     ",
"     .    .                 .     .     ",
"     .    .                 .     .     ",
"     .    .                 .     .     ",
"     .    .                 .     .     ",
"     .    .                 .     .     ",
"     .    .                 .     .     ",
"     .    .                 .     .     ",
"     .    .                 .     .     ",
"      .   .                 .    .      ",
"      .    .              ..     .      ",
"       .    ..           .      .       ",
"       .      ...........       .       ",
"        .                      .        ",
"        .                      .        ",
"         .                    .         ",
"         .                    .         ",
"          .                  .          ",
"          ....................          ",
"                                        ",
"                                        ",
"                                        ",
"                                        ",
"                                        "
};
