/* XPM */
static char *_a54657474cb4d95d71b41fb76e80c40YZXaYLudRHbzD2tt[] = {
/* columns rows colors chars-per-pixel */
"40 60 2 1 ",
"  c #F5F5DC",
". c #EDDF55",
/* pixels */
"                                        ",
"                                        ",
"                                        ",
"                                        ",
"                                        ",
"                                        ",
"              ............              ",
"             ..          ...            ",
"           ..              ..           ",
"         ...                ...         ",
"        ..                    .         ",
"        .                      .        ",
"       ..                      ..       ",
"       .                        .       ",
"      .                         .       ",
"      .                          .      ",
"     ..                          .      ",
"     .                           .      ",
"     .                           .      ",
"     .                           .      ",
"     .                           .      ",
"     .                           .      ",
"     .                          .       ",
"     .                          .       ",
"     .                         .        ",
"     .                        ..        ",
"                             ..         ",
"                             .          ",
"                            .           ",
"                           ..           ",
"                          .             ",
"                         .              ",
"                        .               ",
"                       ..               ",
"                      ..                ",
"                     ..                 ",
"                    ..                  ",
"                   ..                   ",
"                  ..                    ",
"                 ..                     ",
"                ..                      ",
"                .                       ",
"               .                        ",
"              ..                        ",
"              .                         ",
"             .                          ",
"            .                           ",
"           ..                           ",
"          ..                            ",
"          .                             ",
"         ..                             ",
"        ..                              ",
"       ..                               ",
"      ..                                ",
"      ............................      ",
"                                        ",
"                                        ",
"                                        ",
"                                        ",
"                                        "
};
