/* XPM */
static char *_9432f53a38d4c14f860cada94cbc765Uw0hcZnrnJAk6LtH[] = {
/* columns rows colors chars-per-pixel */
"40 60 2 1 ",
"  c #F5F5DC",
". c #EDDF55",
/* pixels */
"                                        ",
"                                        ",
"                                        ",
"                                        ",
"                                        ",
"                                        ",
"                                        ",
"             ...............            ",
"          ...              ..           ",
"        ..                  ..          ",
"       ..                    ..         ",
"                              .         ",
"                              ..        ",
"                               .        ",
"                               ..       ",
"                                .       ",
"                                .       ",
"                                .       ",
"                                .       ",
"                                .       ",
"                                .       ",
"                                .       ",
"                               .        ",
"                             ..         ",
"                            ..          ",
"                          ..            ",
"                        ...             ",
"                       ..               ",
"                    ...                 ",
"              ......                    ",
"        .................               ",
"                        ....            ",
"                            ..          ",
"                             ..         ",
"                              .         ",
"                              ..        ",
"                               .        ",
"                                .       ",
"                                .       ",
"                                .       ",
"                                .       ",
"                                .       ",
"                                .       ",
"                                .       ",
"                                .       ",
"                                .       ",
"                               ..       ",
"                               .        ",
"                              ..        ",
"                             ..         ",
"                            ..          ",
"                        ....            ",
"              ...........               ",
"        .......                         ",
"                                        ",
"                                        ",
"                                        ",
"                                        ",
"                                        ",
"                                        "
};
