/* XPM */
static char *four[] = {
/* columns rows colors chars-per-pixel */
"26 36 2 1 ",
"  c #F5F5DC",
". c #000000",
/* pixels */
"          ........        ",
"          ........        ",
"        ............      ",
"        ............      ",
"        ....    ....      ",
"        ....    ....      ",
"      ....      ....      ",
"      ....      ....      ",
"      ....      ....      ",
"      ....      ....      ",
"    ....        ....      ",
"    ....        ....      ",
"    ....        ....      ",
"    ....        ....      ",
"  ....          ....      ",
"  ....          ....      ",
"  ....          ....      ",
"  ....          ....      ",
"  ......................  ",
"  ......................  ",
"    ....................  ",
"    ....................  ",
"                ....      ",
"                ....      ",
"                ....      ",
"                ....      ",
"                ....      ",
"                ....      ",
"                ....      ",
"                ....      ",
"                ....      ",
"                ....      ",
"                ....      ",
"                ....      ",
"                ....      ",
"                ....      ",
};
