/* XPM */
static char *bc8504bbb7384a34a128e465a5fea1a9DPyUV9Pw33DOZbDl[] = {
/* columns rows colors chars-per-pixel */
"40 60 2 1 ",
"  c #F5F5DC",
". c #EDDF55",
/* pixels */
"                                        ",
"                                        ",
"                                        ",
"                                        ",
"                                        ",
"                                        ",
"                                        ",
"                                        ",
"                                        ",
"                     .                  ",
"                    .                   ",
"                    .                   ",
"                   .                    ",
"                   .                    ",
"                  .                     ",
"                 .                      ",
"                 .                      ",
"                .                       ",
"                .                       ",
"               .                        ",
"              .         .               ",
"              .         .               ",
"             .          .               ",
"            .           .               ",
"            .           .               ",
"           .            .               ",
"           .            .               ",
"          .             .               ",
"         .              .               ",
"         .              .               ",
"        .               .               ",
"        .               .               ",
"       ........................         ",
"                        .               ",
"                        .               ",
"                        .               ",
"                        .               ",
"                        .               ",
"                        .               ",
"                        .               ",
"                        .               ",
"                        .               ",
"                        .               ",
"                        .               ",
"                        .               ",
"                        .               ",
"                        .               ",
"                        .               ",
"                        .               ",
"                        .               ",
"                        .               ",
"                        .               ",
"                        .               ",
"                        .               ",
"                                        ",
"                                        ",
"                                        ",
"                                        ",
"                                        ",
"                                        "
};
