/* XPM */
static char *a54f278246a84554e4e46249e6fbe627kImETTUOr3MMYVaZ[] = {
/* columns rows colors chars-per-pixel */
"40 60 2 1 ",
"  c #F5F5DC",
". c #EDDF55",
/* pixels */
"                                        ",
"                                        ",
"                                        ",
"                                        ",
"                                        ",
"                                        ",
"                                        ",
"                                        ",
"         .......................        ",
"         .                              ",
"         .                              ",
"         .                              ",
"         .                              ",
"         .                              ",
"         .                              ",
"         .                              ",
"         .                              ",
"         .                              ",
"         .                              ",
"         .                              ",
"         .                              ",
"         .                              ",
"         .                              ",
"         .                              ",
"         .                              ",
"         .                              ",
"         .                              ",
"         ...................            ",
"                           ...          ",
"                             ..         ",
"                              .         ",
"                              ..        ",
"                               .        ",
"                               .        ",
"                               ..       ",
"                                .       ",
"                                .       ",
"                                .       ",
"                                 .      ",
"                                 .      ",
"                                 .      ",
"                                 .      ",
"                                 .      ",
"                                 .      ",
"                                 .      ",
"                                ..      ",
"                               ..       ",
"                              ..        ",
"                            ...         ",
"                          ...           ",
"                       ....             ",
"          ..............                ",
"                                        ",
"                                        ",
"                                        ",
"                                        ",
"                                        ",
"                                        ",
"                                        ",
"                                        "
};
