/* XPM */
static char *a2111c7d62614706aabca0b8668d5d06ebhb9S9dtHoJhsdK[] = {
/* columns rows colors chars-per-pixel */
"40 60 2 1 ",
"  c #F5F5DC",
". c #EDDF55",
/* pixels */
"                                        ",
"                                        ",
"                                        ",
"                                        ",
"                                        ",
"                                        ",
"                                        ",
"                                        ",
"                                        ",
"                    ...........         ",
"                  ..                    ",
"                ..                      ",
"              ...                       ",
"             ..                         ",
"            ..                          ",
"           ..                           ",
"           .                            ",
"          ..                            ",
"          .                             ",
"          .                             ",
"         .                              ",
"         .                              ",
"        ..                              ",
"        .                               ",
"        .                               ",
"        .                               ",
"       .                                ",
"       .                                ",
"       .                                ",
"       .                                ",
"       .                                ",
"       .                                ",
"       .             ....               ",
"      .          ....    ....           ",
"      .        ...           ..         ",
"      .      ...              ..        ",
"       .    ..                 .        ",
"       .   ..                  .        ",
"       .  ..                   .        ",
"       . ..                    .        ",
"       . .                     .        ",
"       ...                    ..        ",
"        .                     .         ",
"        .                     .         ",
"         .                   .          ",
"         ..                  .          ",
"          ..                .           ",
"           ..              ..           ",
"            ...            .            ",
"              ....       ..             ",
"                 ........               ",
"                                        ",
"                                        ",
"                                        ",
"                                        ",
"                                        ",
"                                        ",
"                                        ",
"                                        ",
"                                        "
};
