/* XPM */
static char *_69891207b374a57af4fb84755f23f13aY1EmyT4YV0TPBM6[] = {
/* columns rows colors chars-per-pixel */
"40 60 2 1 ",
"  c #F5F5DC",
". c #EDDF55",
/* pixels */
"                                        ",
"                                        ",
"                                        ",
"                                        ",
"                                        ",
"                                        ",
"                                        ",
"                                        ",
"                                        ",
"                                        ",
"                                        ",
"       .........................        ",
"                               .        ",
"                               .        ",
"                              .         ",
"                              .         ",
"                             .          ",
"                             .          ",
"                             .          ",
"                            .           ",
"                            .           ",
"                           .            ",
"                           .            ",
"                          .             ",
"                          .             ",
"                          .             ",
"                         .              ",
"                         .              ",
"                        .               ",
"             .................          ",
"                        .               ",
"                       .                ",
"                       .                ",
"                      .                 ",
"                      .                 ",
"                      .                 ",
"                     .                  ",
"                     .                  ",
"                    .                   ",
"                    .                   ",
"                    .                   ",
"                   .                    ",
"                   .                    ",
"                  .                     ",
"                  .                     ",
"                 .                      ",
"                 .                      ",
"                 .                      ",
"                .                       ",
"                .                       ",
"               .                        ",
"               .                        ",
"                                        ",
"                                        ",
"                                        ",
"                                        ",
"                                        ",
"                                        ",
"                                        ",
"                                        "
};
