/* XPM */
static char *d00b4639e80946009fe8bb2ddae4df676uCDUxDZBegc47BU[] = {
/* columns rows colors chars-per-pixel */
"40 60 2 1 ",
"  c #F5F5DC",
". c #EDDF55",
/* pixels */
"                                        ",
"                                        ",
"                                        ",
"                                        ",
"                                        ",
"                                        ",
"                                        ",
"              ..........                ",
"          .....        ....             ",
"         ..               ..            ",
"        ..                 ..           ",
"        .                   ..          ",
"        .                    .          ",
"        .                    ..         ",
"       .                      .         ",
"       .                      .         ",
"       .                      .         ",
"       .                      .         ",
"       .                      .         ",
"       .                      .         ",
"        .                     .         ",
"        .                    .          ",
"        .                    .          ",
"        ..                   .          ",
"         .                   .          ",
"         .                   .          ",
"         ..                 .           ",
"          ..               ..           ",
"           .              ..            ",
"            ..           ..             ",
"             ...............            ",
"             ... ....      ...          ",
"            ..               ..         ",
"          ..                  .         ",
"         ..                    .        ",
"         .                     .        ",
"        .                      .        ",
"        .                      ..       ",
"       ..                       .       ",
"       .                       ..       ",
"       .                       .        ",
"       .                       .        ",
"       .                       .        ",
"       .                       .        ",
"       .                       .        ",
"       .                       .        ",
"       .                       .        ",
"       ..                     .         ",
"        ..                   ..         ",
"         ..                  .          ",
"           ...              ..          ",
"             ....        ...            ",
"                ..........              ",
"                                        ",
"                                        ",
"                                        ",
"                                        ",
"                                        ",
"                                        ",
"                                        "
};
