/* XPM */
static char *eight[] = {
/* columns rows colors chars-per-pixel */
"20 36 2 1 ",
"  c #F5F5DC",
". c #000000",
/* pixels */
"      ........      ",
"      ........      ",
"    ............    ",
"    ............    ",
"  ......    ......  ",
"  ......    ......  ",
"  ....        ....  ",
"  ....        ....  ",
"  ....        ....  ",
"  ....        ....  ",
"  ....        ....  ",
"  ....        ....  ",
"  ....        ....  ",
"  ....        ....  ",
"  ......    ......  ",
"  ......    ......  ",
"    ............    ",
"    ............    ",
"      ........      ",
"      ........      ",
"    ....    ....    ",
"    ....    ....    ",
"  ....        ....  ",
"  ....        ....  ",
"  ....        ....  ",
"  ....        ....  ",
"  ....        ....  ",
"  ....        ....  ",
"  ....        ....  ",
"  ....        ....  ",
"  ......    ......  ",
"  ......    ......  ",
"    ............    ",
"    ............    ",
"      ........      ",
"      ........      ",
};
