/* XPM */
static char *_[] = {
/* columns rows colors chars-per-pixel */
"60 60 2 1 ",
"  c None",
". c black",
/* pixels */
"                                                            ",
"                                                            ",
"                                                            ",
"                                                            ",
"                                                            ",
"                                                            ",
"                                                            ",
"                                                            ",
"                                                            ",
"                                                            ",
"                                                            ",
"                                                            ",
"                                                            ",
"                                                            ",
"                                                            ",
"                                                            ",
"                        ..............                      ",
"                        ..............                      ",
"                      ..................                    ",
"                      ..................                    ",
"                      ......      ......                    ",
"                      ......      ......                    ",
"                      ....          ....                    ",
"                      ....          ....                    ",
"                      ....          ....                    ",
"                      ....          ....                    ",
"                      ....          ....                    ",
"                      ....          ....                    ",
"                      ......      ......                    ",
"                      ......      ......                    ",
"                      ..................                    ",
"                      ..................                    ",
"                        ................                    ",
"                        ................                    ",
"                                    ....                    ",
"                                    ....                    ",
"                                    ....                    ",
"                                    ....                    ",
"                                    ....                    ",
"                                    ....                    ",
"                                    ....                    ",
"                                    ....                    ",
"                                    ....                    ",
"                                    ....                    ",
"                                    ....                    ",
"                                    ....                    ",
"                        ....        ....                    ",
"                        ....        ....                    ",
"                        ................                    ",
"                        ................                    ",
"                          ............                      ",
"                          ............                      ",
"                                                            ",
"                                                            ",
"                                                            ",
"                                                            ",
"                                                            ",
"                                                            ",
"                                                            ",
"                                                            "
};
