/* XPM */
static char *c3f034f86d744c86d5f3b13b0bc1ff35OQq1WB7OoZXkkYXv[] = {
/* columns rows colors chars-per-pixel */
"40 60 2 1 ",
"  c #F5F5DC",
". c #EDDF55",
/* pixels */
"                                        ",
"                                        ",
"                                        ",
"                                        ",
"                                        ",
"                                        ",
"                                        ",
"                                        ",
"             ..........                 ",
"           ..          ...              ",
"          ..             ..             ",
"         ..               ..            ",
"         .                 .            ",
"         .                 .            ",
"        ..                 .            ",
"        .                  .            ",
"        .                  .            ",
"        .                  .            ",
"        .                  .            ",
"        .                  .            ",
"        .                  .            ",
"        .                  .            ",
"        .                 ..            ",
"         .                ..            ",
"         ..               ..            ",
"          .              ...            ",
"           ..           .. .            ",
"             .......  ...  .            ",
"                    ...    .            ",
"                           .            ",
"                           .            ",
"                           .            ",
"                           .            ",
"                           .            ",
"                           .            ",
"                           .            ",
"                           .            ",
"                           .            ",
"                           .            ",
"                           .            ",
"                           .            ",
"                           .            ",
"                           .            ",
"                           .            ",
"                           .            ",
"                           .            ",
"                           .            ",
"                           .            ",
"                           .            ",
"                           .            ",
"                           .            ",
"                           .            ",
"                           .            ",
"                                        ",
"                                        ",
"                                        ",
"                                        ",
"                                        ",
"                                        ",
"                                        "
};
