/* XPM */
static char *percentage[] = {
/* columns rows colors chars-per-pixel */
"15 22 2 1 ",
"  c #F5F5DC",
". c #000000",
/* pixels */
"            .. ",
"            .. ",
" ...       ... ",
" . .       ..  ",
" ...      ...  ",
"          ..   ",
"         ...   ",
"        ...    ",
"        ...    ",
"       ...     ",
"       ..      ",
"      ...      ",
"      ..       ",
"     ...       ",
"    ...        ",
"    ...        ",
"   ...         ",
"   ..      ... ",
"  ...      . . ",
"  ..       ... ",
" ...           ",
" ..            "
};
