/* XPM */
static char *percentage[] = {
/* columns rows colors chars-per-pixel */
"24 36 2 1 ",
"  c None",
". c black",
/* pixels */
"                  ....  ",
"                  ....  ",
"                  ....  ",
"                  ....  ",
"  ......        ......  ",
"  ......        ......  ",
"  ..  ..        ....    ",
"  ..  ..        ....    ",
"  ......      ....      ",
"  ......      ....      ",
"              ....      ",
"              ....      ",
"            ....        ",
"            ....        ",
"            ....        ",
"            ....        ",
"          ......        ",
"          ......        ",
"          ....          ",
"          ....          ",
"          ....          ",
"          ....          ",
"        ....            ",
"        ....            ",
"        ....            ",
"        ....            ",
"      ......            ",
"      ......            ",
"      ....      ......  ",
"      ....      ......  ",
"    ......      ..  ..  ",
"    ......      ..  ..  ",
"    ....        ......  ",
"    ....        ......  ",
"    ....                ",
"    ....                ",
};
