/* XPM */
static char *_[] = {
/* columns rows colors chars-per-pixel */
"60 80 2 1 ",
"  c None",
". c black",
/* pixels */
"                                                            ",
"                                                            ",
"                                                            ",
"                                                            ",
"                                                            ",
"                                                            ",
"                                                            ",
"                                                            ",
"                                                            ",
"                                                            ",
"                                                            ",
"                                                            ",
"                                                            ",
"                                                            ",
"                                                            ",
"                                                            ",
"                                                            ",
"                                                            ",
"                                                            ",
"                                                            ",
"                                                            ",
"                                                            ",
"                                                            ",
"                                                            ",
"                            ........                        ",
"                            ........                        ",
"                          ............                      ",
"                          ............                      ",
"                          ....    ....                      ",
"                          ....    ....                      ",
"                        ....      ....                      ",
"                        ....      ....                      ",
"                        ....      ....                      ",
"                        ....      ....                      ",
"                      ....        ....                      ",
"                      ....        ....                      ",
"                      ....        ....                      ",
"                      ....        ....                      ",
"                    ....          ....                      ",
"                    ....          ....                      ",
"                    ....          ....                      ",
"                    ....          ....                      ",
"                    ......................                  ",
"                    ......................                  ",
"                      ....................                  ",
"                      ....................                  ",
"                                  ....                      ",
"                                  ....                      ",
"                                  ....                      ",
"                                  ....                      ",
"                                  ....                      ",
"                                  ....                      ",
"                                  ....                      ",
"                                  ....                      ",
"                                  ....                      ",
"                                  ....                      ",
"                                  ....                      ",
"                                  ....                      ",
"                                  ....                      ",
"                                  ....                      ",
"                                                            ",
"                                                            ",
"                                                            ",
"                                                            ",
"                                                            ",
"                                                            ",
"                                                            ",
"                                                            ",
"                                                            ",
"                                                            ",
"                                                            ",
"                                                            ",
"                                                            ",
"                                                            ",
"                                                            ",
"                                                            ",
"                                                            ",
"                                                            ",
"                                                            ",
"                                                            "
};
