/* XPM */
static char *accuracy[] = {
/* columns rows colors chars-per-pixel */
"150 22 2 1 ",
"  c #F5F5DC",
". c #000000",
/* pixels */
"      ..........          ........      ........    ....      ....    ............            ..........          ........    ....        ....        ",
"      ..........          ........      ........    ....      ....    ............            ..........          ........    ....        ....        ",
"      ..........        ..........    ..........    ....      ....    ............            ..........        ..........    ......    ......        ",
"      ..........        ..........    ..........    ....      ....    ............            ..........        ..........    ......    ......        ",
"  ....          ....    ....          ....          ....      ....    ....        ....    ....          ....    ....            ....    ....          ",
"  ....          ....    ....          ....          ....      ....    ....        ....    ....          ....    ....            ....    ....          ",
"  ....          ....    ....          ....          ....      ....    ....        ....    ....          ....    ....                ....              ",
"  ....          ....    ....          ....          ....      ....    ....        ....    ....          ....    ....                ....              ",
"  ....          ....    ....          ....          ....      ....    ............        ....          ....    ....                ....        ....  ",
"  ....          ....    ....          ....          ....      ....    ............        ....          ....    ....                ....        ....  ",
"  ..................    ....          ....          ....      ....    ............        ..................    ....                ....        ....  ",
"  ..................    ....          ....          ....      ....    ............        ..................    ....                ....        ....  ",
"  ..................    ....          ....          ....      ....    ....    ....        ..................    ....                ....              ",
"  ..................    ....          ....          ....      ....    ....    ....        ..................    ....                ....              ",
"  ....          ....    ....          ....          ....      ....    ....    ....        ....          ....    ....                ....              ",
"  ....          ....    ....          ....          ....      ....    ....    ....        ....          ....    ....                ....              ",
"  ....          ....    ....          ....          ....      ....    ....    ....        ....          ....    ....                ....        ....  ",
"  ....          ....    ....          ....          ....      ....    ....    ....        ....          ....    ....                ....        ....  ",
"  ....          ....    ..........    ..........    ..............    ....        ....    ....          ....    ..........          ....        ....  ",
"  ....          ....    ..........    ..........    ..............    ....        ....    ....          ....    ..........          ....        ....  ",
"  ....          ....      ........      ........      ..........      ....        ....    ....          ....      ........          ....              ",
"  ....          ....      ........      ........      ..........      ....        ....    ....          ....      ........          ....              ",
};
