/* XPM */
static char *classic[] = {
/* columns rows colors chars-per-pixel */
"136 54 4 1 ",
"  c #F5F5DC",
". c #000000",
"X c #FF0000",
"o c #EDDF55",
/* pixels */
"                                                                                                                                        ",
"                                                                                                                                        ",
"          ....................................................................................................................          ",
"          ....................................................................................................................          ",
"          ....................................................................................................................          ",
"          ....................................................................................................................          ",
"      ............................................................................................................................      ",
"      ............................................................................................................................      ",
"  ........XXXXXXXXXXXXXXXXXXXXXXXXXXXXXXXXXXXXXXXXXXXXXXXXXXXXXXXXXXXXXXXXXXXXXXXXXXXXXXXXXXXXXXXXXXXXXXXXXXXXXXXXXXXXXXXXXXXX........  ",
"  ........XXXXXXXXXXXXXXXXXXXXXXXXXXXXXXXXXXXXXXXXXXXXXXXXXXXXXXXXXXXXXXXXXXXXXXXXXXXXXXXXXXXXXXXXXXXXXXXXXXXXXXXXXXXXXXXXXXXX........  ",
"  ......XXXXXXXXXXXXXXXXXXXXXXXXXXXXXXXXXXXXXXXXXXXXXXXXXXXXXXXXXXXXXXXXXXXXXXXXXXXXXXXXXXXXXXXXXXXXXXXXXXXXXXXXXXXXXXXXXXXXXXXX......  ",
"  ......XXXXXXXXXXXXXXXXXXXXXXXXXXXXXXXXXXXXXXXXXXXXXXXXXXXXXXXXXXXXXXXXXXXXXXXXXXXXXXXXXXXXXXXXXXXXXXXXXXXXXXXXXXXXXXXXXXXXXXXX......  ",
"  ......XXXXXXXXXXXXXXXXXXXXXXXXXXXXXXXXXXXXXXXXXXXXXXXXXXXXXXXXXXXXXXXXXXXXXXXXXXXXXXXXXXXXXXXXXXXXXXXXXXXXXXXXXXXXXXXXXXXXXXXX......  ",
"  ......XXXXXXXXXXXXXXXXXXXXXXXXXXXXXXXXXXXXXXXXXXXXXXXXXXXXXXXXXXXXXXXXXXXXXXXXXXXXXXXXXXXXXXXXXXXXXXXXXXXXXXXXXXXXXXXXXXXXXXXX......  ",
"  ......XXXXXXXXXXXXXXXXXXXXXXXXXXXXXXXXXXXXXXXXXXXXXXXXXXXXXXXXXXXXXXXXXXXXXXXXXXXXXXXXXXXXXXXXXXXXXXXXXXXXXXXXXXXXXXXXXXXXXXXX......  ",
"  ......XXXXXXXXXXXXXXXXXXXXXXXXXXXXXXXXXXXXXXXXXXXXXXXXXXXXXXXXXXXXXXXXXXXXXXXXXXXXXXXXXXXXXXXXXXXXXXXXXXXXXXXXXXXXXXXXXXXXXXXX......  ",
"  ......XXXXXXXXXXXXXXXXXXXXXXXXXXXXXXXXXXXXXXXXXXXXXXXXXXXXXXXXXXXXXXooooooooooXXXXXXXXooooooooooooXXXXXXooooXXXXooooooooXXXXXX......  ",
"  ......XXXXXXXXXXXXXXXXXXXXXXXXXXXXXXXXXXXXXXXXXXXXXXXXXXXXXXXXXXXXXXooooooooooXXXXXXXXooooooooooooXXXXXXooooXXXXooooooooXXXXXX......  ",
"  ......XXXXXXXXXXooooooooXXXXooooXXXXXXXXXXXXXXXXooooXXXXXXXXXXXXXXooooooooooooXXXXXXooooooooooooooXXXXXXooooXXXXooooooooXXXXXX......  ",
"  ......XXXXXXXXXXooooooooXXXXooooXXXXXXXXXXXXXXXXooooXXXXXXXXXXXXXXooooooooooooXXXXXXooooooooooooooXXXXXXooooXXXXooooooooXXXXXX......  ",
"  ......XXXXXXXXXXooooooooXXXXooooXXXXXXXXXXXXXXooooooooXXXXXXXXXXXXooooooXXXXXXXXXXXXooooXXXXXXXXXXXXXXXXooooXXXXooooXXXXXXXXXX......  ",
"  ......XXXXXXXXXXooooooooXXXXooooXXXXXXXXXXXXXXooooooooXXXXXXXXXXXXooooooXXXXXXXXXXXXooooXXXXXXXXXXXXXXXXooooXXXXooooXXXXXXXXXX......  ",
"  ......XXXXXXXXXXooooXXXXXXXXooooXXXXXXXXXXXXXXooooooooooXXXXXXXXXXooooooXXXXXXXXXXXXooooooXXXXXXXXXXXXXXooooXXXXooooXXXXXXXXXX......  ",
"  ......XXXXXXXXXXooooXXXXXXXXooooXXXXXXXXXXXXXXooooooooooXXXXXXXXXXooooooXXXXXXXXXXXXooooooXXXXXXXXXXXXXXooooXXXXooooXXXXXXXXXX......  ",
"  ......XXXXXXXXXXooooXXXXXXXXooooXXXXXXXXXXXXXXooooooooooXXXXXXXXXXooooooooooXXXXXXXXooooooooooooXXXXXXXXooooXXXXooooXXXXXXXXXX......  ",
"  ......XXXXXXXXXXooooXXXXXXXXooooXXXXXXXXXXXXXXooooooooooXXXXXXXXXXooooooooooXXXXXXXXooooooooooooXXXXXXXXooooXXXXooooXXXXXXXXXX......  ",
"  ......XXXXXXXXXXooooXXXXXXXXooooXXXXXXXXXXXXooooooXXooooXXXXXXXXXXXXooooooooooXXXXXXXXXXooooooooooXXXXXXooooXXXXooooXXXXXXXXXX......  ",
"  ......XXXXXXXXXXooooXXXXXXXXooooXXXXXXXXXXXXooooooXXooooXXXXXXXXXXXXooooooooooXXXXXXXXXXooooooooooXXXXXXooooXXXXooooXXXXXXXXXX......  ",
"  ......XXXXXXXXXXooooXXXXXXXXooooXXXXXXXXXXXXooooooXXooooooXXXXXXXXXXXXXXooooooooXXXXXXXXXXXXooooooXXXXXXooooXXXXooooXXXXXXXXXX......  ",
"  ......XXXXXXXXXXooooXXXXXXXXooooXXXXXXXXXXXXooooooXXooooooXXXXXXXXXXXXXXooooooooXXXXXXXXXXXXooooooXXXXXXooooXXXXooooXXXXXXXXXX......  ",
"  ......XXXXXXXXXXooooXXXXXXXXooooXXXXXXXXXXooooooooooooooooXXXXXXXXXXXXXXXXooooooXXXXXXXXXXXXXXooooXXXXXXooooXXXXooooXXXXXXXXXX......  ",
"  ......XXXXXXXXXXooooXXXXXXXXooooXXXXXXXXXXooooooooooooooooXXXXXXXXXXXXXXXXooooooXXXXXXXXXXXXXXooooXXXXXXooooXXXXooooXXXXXXXXXX......  ",
"  ......XXXX..XXXXooooooooXXXXooooooooooXXXXooooooXXXXXXooooooXXXXXXooooooooooooooXXXXooooooooooooooXXXXXXooooXXXXooooooooXXXXXX......  ",
"  ......XXXX..XXXXooooooooXXXXooooooooooXXXXooooooXXXXXXooooooXXXXXXooooooooooooooXXXXooooooooooooooXXXXXXooooXXXXooooooooXXXXXX......  ",
"  ......XX....XXXXooooooooXXXXooooooooooXXXXooooXXXXXXXXXXooooXXXXXXooooooooooooXXXXXXooooooooooooXXXXXXXXooooXXXXooooooooXXXXXX......  ",
"  ......XX....XXXXooooooooXXXXooooooooooXXXXooooXXXXXXXXXXooooXXXXXXooooooooooooXXXXXXooooooooooooXXXXXXXXooooXXXXooooooooXXXXXX......  ",
"  ......XXXX..XXXXXXXXXXXXXXXXXXXXXXXXXXXXXXXXXXXXXXXXXXXXXXXXXXXXXXXXXXXXXXXXXXXXXXXXXXXXXXXXXXXXXXXXXXXXXXXXXXXXXXXXXXXXXXXXXX......  ",
"  ......XXXX..XXXXXXXXXXXXXXXXXXXXXXXXXXXXXXXXXXXXXXXXXXXXXXXXXXXXXXXXXXXXXXXXXXXXXXXXXXXXXXXXXXXXXXXXXXXXXXXXXXXXXXXXXXXXXXXXXX......  ",
"  ......XXXX..XXXXXXXXXXXXXXXXXXXXXXXXXXXXXXXXXXXXXXXXXXXXXXXXXXXXXXXXXXXXXXXXXXXXXXXXXXXXXXXXXXXXXXXXXXXXXXXXXXXXXXXXXXXXXXXXXX......  ",
"  ......XXXX..XXXXXXXXXXXXXXXXXXXXXXXXXXXXXXXXXXXXXXXXXXXXXXXXXXXXXXXXXXXXXXXXXXXXXXXXXXXXXXXXXXXXXXXXXXXXXXXXXXXXXXXXXXXXXXXXXX......  ",
"  ......XXXX..XX..XXXXXXXXXXXXXXXXXXXXXXXXXXXXXXXXXXXXXXXXXXXXXXXXXXXXXXXXXXXXXXXXXXXXXXXXXXXXXXXXXXXXXXXXXXXXXXXXXXXXXXXXXXXXXX......  ",
"  ......XXXX..XX..XXXXXXXXXXXXXXXXXXXXXXXXXXXXXXXXXXXXXXXXXXXXXXXXXXXXXXXXXXXXXXXXXXXXXXXXXXXXXXXXXXXXXXXXXXXXXXXXXXXXXXXXXXXXXX......  ",
"  ......XXXXXXXXXXXXXXXXXXXXXXXXXXXXXXXXXXXXXXXXXXXXXXXXXXXXXXXXXXXXXXXXXXXXXXXXXXXXXXXXXXXXXXXXXXXXXXXXXXXXXXXXXXXXXXXXXXXXXXXX......  ",
"  ......XXXXXXXXXXXXXXXXXXXXXXXXXXXXXXXXXXXXXXXXXXXXXXXXXXXXXXXXXXXXXXXXXXXXXXXXXXXXXXXXXXXXXXXXXXXXXXXXXXXXXXXXXXXXXXXXXXXXXXXX......  ",
"  ........XXXXXXXXXXXXXXXXXXXXXXXXXXXXXXXXXXXXXXXXXXXXXXXXXXXXXXXXXXXXXXXXXXXXXXXXXXXXXXXXXXXXXXXXXXXXXXXXXXXXXXXXXXXXXXXXXX..........  ",
"  ........XXXXXXXXXXXXXXXXXXXXXXXXXXXXXXXXXXXXXXXXXXXXXXXXXXXXXXXXXXXXXXXXXXXXXXXXXXXXXXXXXXXXXXXXXXXXXXXXXXXXXXXXXXXXXXXXXX..........  ",
"      ..........................................................................................................................        ",
"      ..........................................................................................................................        ",
"          ..................................................................................................................            ",
"          ..................................................................................................................            ",
"          ..................................................................................................................            ",
"          ..................................................................................................................            ",
"                                                                                                                                        ",
"                                                                                                                                        "
};
