/* XPM */
static char *classic[] = {
/* columns rows colors chars-per-pixel */
"100 80 4 1 ",
"  c None",
". c black",
"X c red",
"o c #EDDF55",
/* pixels */
"                                                                                                    ",
"                                                                                                    ",
"                                                                                                    ",
"                                                                                                    ",
"                                                                                                    ",
"                                                                                                    ",
"                                                                                                    ",
"                                                                                                    ",
"                                                                                                    ",
"                                                                                                    ",
"                                                                                                    ",
"                                                                                                    ",
"                                                                                                    ",
"                                                                                                    ",
"                                                                                                    ",
"                                                                                                    ",
"                                                                                                    ",
"                                                                                                    ",
"                                                                                                    ",
"                                                                                                    ",
"                                                                                                    ",
"                                                                                                    ",
"                                                                                                    ",
"                                                                                                    ",
"                                                                                                    ",
"                                                                                                    ",
"                                                                                                    ",
"                       ..........................................................                   ",
"                       ..........................................................                   ",
"                     ..............................................................                 ",
"                   ....XXXXXXXXXXXXXXXXXXXXXXXXXXXXXXXXXXXXXXXXXXXXXXXXXXXXXXXXXX....               ",
"                   ...XXXXXXXXXXXXXXXXXXXXXXXXXXXXXXXXXXXXXXXXXXXXXXXXXXXXXXXXXXXX...               ",
"                   ...XXXXXXXXXXXXXXXXXXXXXXXXXXXXXXXXXXXXXXXXXXXXXXXXXXXXXXXXXXXX...               ",
"                   ...XXXXXXXXXXXXXXXXXXXXXXXXXXXXXXXXXXXXXXXXXXXXXXXXXXXXXXXXXXXX...               ",
"                   ...XXXXXXXXXXXXXXXXXXXXXXXXXXXXXXXoooooXXXXooooooXXXooXXooooXXX...               ",
"                   ...XXXXXooooXXooXXXXXXXXooXXXXXXXooooooXXXoooooooXXXooXXooooXXX...               ",
"                   ...XXXXXooooXXooXXXXXXXooooXXXXXXoooXXXXXXooXXXXXXXXooXXooXXXXX...               ",
"                   ...XXXXXooXXXXooXXXXXXXoooooXXXXXoooXXXXXXoooXXXXXXXooXXooXXXXX...               ",
"                   ...XXXXXooXXXXooXXXXXXXoooooXXXXXoooooXXXXooooooXXXXooXXooXXXXX...               ",
"                   ...XXXXXooXXXXooXXXXXXoooXooXXXXXXoooooXXXXXoooooXXXooXXooXXXXX...               ",
"                   ...XXXXXooXXXXooXXXXXXoooXoooXXXXXXXooooXXXXXXoooXXXooXXooXXXXX...               ",
"                   ...XXXXXooXXXXooXXXXXooooooooXXXXXXXXoooXXXXXXXooXXXooXXooXXXXX...               ",
"                   ...XX.XXooooXXoooooXXoooXXXoooXXXoooooooXXoooooooXXXooXXooooXXX...               ",
"                   ...X..XXooooXXoooooXXooXXXXXooXXXooooooXXXooooooXXXXooXXooooXXX...               ",
"                   ...XX.XXXXXXXXXXXXXXXXXXXXXXXXXXXXXXXXXXXXXXXXXXXXXXXXXXXXXXXXX...               ",
"                   ...XX.XXXXXXXXXXXXXXXXXXXXXXXXXXXXXXXXXXXXXXXXXXXXXXXXXXXXXXXXX...               ",
"                   ...XX.X.XXXXXXXXXXXXXXXXXXXXXXXXXXXXXXXXXXXXXXXXXXXXXXXXXXXXXXX...               ",
"                   ...XXXXXXXXXXXXXXXXXXXXXXXXXXXXXXXXXXXXXXXXXXXXXXXXXXXXXXXXXXXX...               ",
"                   ....XXXXXXXXXXXXXXXXXXXXXXXXXXXXXXXXXXXXXXXXXXXXXXXXXXXXXXXXX.....               ",
"                     .............................................................                  ",
"                       .........................................................                    ",
"                       .........................................................                    ",
"                                                                                                    ",
"                                                                                                    ",
"                                                                                                    ",
"                                                                                                    ",
"                                                                                                    ",
"                                                                                                    ",
"                                                                                                    ",
"                                                                                                    ",
"                                                                                                    ",
"                                                                                                    ",
"                                                                                                    ",
"                                                                                                    ",
"                                                                                                    ",
"                                                                                                    ",
"                                                                                                    ",
"                                                                                                    ",
"                                                                                                    ",
"                                                                                                    ",
"                                                                                                    ",
"                                                                                                    ",
"                                                                                                    ",
"                                                                                                    ",
"                                                                                                    ",
"                                                                                                    ",
"                                                                                                    ",
"                                                                                                    ",
"                                                                                                    ",
"                                                                                                    "
};
