/* XPM */
static char *fail[] = {
/* columns rows colors chars-per-pixel */
"62 22 2 1 ",
"  c #F5F5DC",
". c #FF0000",
/* pixels */
".............      .....      ..   .           ........       ",
".............     .......     ..  ..          ..........      ",
"..               ...   ...        ..          ..       .      ",
"..              ...     ...   ..  ..          ..              ",
"..             ...       ...  ..  ..          ..              ",
"..             ..         ..  ..  ..          ..           ...",
"..             ..         ..  ..  ..          ..           ...",
"..             ..         ..  ..  ..          ..           ...",
".........      ..         ..  ..  ..          ..              ",
".........      ..         ..  ..  ..          ..              ",
"..             ..         ..  ..  ..           .......        ",
"..             .. ....... ..  ..  ..            .......       ",
"..             .............  ..  ..                  ..      ",
"..             ....     ....  ..  ..                  ..      ",
"..             ..         ..  ..  ..                  ..      ",
"..             ..         ..  ..  ..                  ..   ...",
"..             ..         ..  ..  ..                  ..   ...",
"..             ..         ..  ..  ..                  ..   ...",
"..             ..         ..  ..  ..                  ..      ",
"..             ..         ..  ..  ..          .       ..      ",
"..             ..         ..  ..  .........   ..........      ",
"..             ..         ..  ..  ..........   ........       "
};
