/* XPM */
static char *falling[] = {
/* columns rows colors chars-per-pixel */
"136 54 4 1 ",
"  c #F5F5DC",
". c #000000",
"X c #FF0000",
"o c #EDDF55",
/* pixels */
"                                                                                                                                        ",
"                                                                                                                                        ",
"          ....................................................................................................................          ",
"          ....................................................................................................................          ",
"          ....................................................................................................................          ",
"          ....................................................................................................................          ",
"      ............................................................................................................................      ",
"      ............................................................................................................................      ",
"  ........XXXXXXXXXXXXXXXXXXXXXXXXXXXXXXXXXXXXXXXXXXXXXXXXXXXXXXXXXXXXXXXXXXXXXXXXXXXXXXXXXXXXXXXXXXXXXXXXXXXXXXXXXXXXXXXXXXXX........  ",
"  ........XXXXXXXXXXXXXXXXXXXXXXXXXXXXXXXXXXXXXXXXXXXXXXXXXXXXXXXXXXXXXXXXXXXXXXXXXXXXXXXXXXXXXXXXXXXXXXXXXXXXXXXXXXXXXXXXXXXX........  ",
"  ......XXXXXXXXXXXXXXXXXXXXXXXXXXXXXXXXXXXXXXXXXXXXXXXXXXXXXXXXXXXXXXXXXXXXXXXXXXXXXXXXXXXXXXXXXXXXXXXXXXXXXXXXXXXXXXXXXXXXXXXX......  ",
"  ......XXXXXXXXXXXXXXXXXXXXXXXXXXXXXXXXXXXXXXXXXXXXXXXXXXXXXXXXXXXXXXXXXXXXXXXXXXXXXXXXXXXXXXXXXXXXXXXXXXXXXXXXXXXXXXXXXXXXXXXX......  ",
"  ......XXXXXXXXXXXXXXXXXXXXXXXXXXXXXXXXXXXXXXXXXXXXXXXXXXXXXXXXXXXXXXXXXXXXXXXXXXXXXXXXXXXXXXXXXXXXXXXXXXXXXXXXXXXXXXXXXXXXXXXX......  ",
"  ......XXXXXXXXXXXXXXXXXXXXXXXXXXXXXXXXXXXXXXXXXXXXXXXXXXXXXXXXXXXXXXXXXXXXXXXXXXXXXXXXXXXXXXXXXXXXXXXXXXXXXXXXXXXXXXXXXXXXXXXX......  ",
"  ......XXXXXXXXXXXXXXXXXXXXXXXXXXXXXXXXXXXXXXXXXXXXXXXXXXXXXXXXXXXXXXXXXXXXXXXXXXXXXXXXXXXXXXXXXXXXXXXXXXXXXXXXXXXXXXXXXXXXXXXX......  ",
"  ......XXXXXXXXXXXXXXXXXXXXXXXXXXXXXXXXXXXXXXXXXXXXXXXXXXXXXXXXXXXXXXXXXXXXXXXXXXXXXXXXXXXXXXXXXXXXXXXXXXXXXXXXXXXXXXXXXXXXXXXX......  ",
"  ......XXXXXXXXXXXXXXXXXXXXXXXXXXXXXXXXXXXXXXXXXXXXXXXXXXXXXXXXXXXXXXXXXXXXXXXXXXXXXXXXXXXXXXXXXXXXXXXXXXXXXXXXXXXXXXXXXXXXXXXX......  ",
"  ......XXXXXXXXXXXXXXXXXXXXXXXXXXXXXXXXXXXXXXXXXXXXXXXXXXXXXXXXXXXXXXXXXXXXXXXXXXXXXXXXXXXXXXXXXXXXXXXXXXXXXXXXXXXXXXXXXXXXXXXX......  ",
"  ......XXXXXXXXXXXXXXXXXXXXXXXXXXXXXXXXXXXXXXXXXXXXXXXXXXXXXXXXXXXXXXXXXXXXXXXXXXXXXXXXXXXXXXXXXXXXXXXXXXXXXXXXXXXXXXXXXXXXXXXX......  ",
"  ......XXXXXXXXXXXXXXXXXXXXXXXXXXXXXXXXXXXXXXXXXXXXXXXXXXXXXXXXXXXXXXXXXXXXXXXXXXXXXXXXXXXXXXXXXXXXXXXXXXXXXXXXXXXXXXXXXXXXXXXX......  ",
"  ......XXXXXXXXXXXXXXXXooooooooooXXXXXXXXXXXXXXXXXXXXXXXXXXXXXXXXXXXXXXXXXXXXXXXXXXXXXXXXXXXXXXXXXXXXXXXXXXXXXXXXXXXXXXXXXXXXXX......  ",
"  ......XXXXXXXXXXXXXXXXooooooooooXXXXXXXXXXXXXXXXXXXXXXXXXXXXXXXXXXXXXXXXXXXXXXXXXXXXXXXXXXXXXXXXXXXXXXXXXXXXXXXXXXXXXXXXXXXXXX......  ",
"  ......XXXXXXXXXXXXXXXXooooooooooXXXXXXooooXXXXXXXXXXooooXXXXXXXXXXooooXXXXXXXXooooXXXXooooooXXXXooooXXXXXXooooooooooXXXXXXXXXX......  ",
"  ......XXXXXXXXXXXXXXXXooooooooooXXXXXXooooXXXXXXXXXXooooXXXXXXXXXXooooXXXXXXXXooooXXXXooooooXXXXooooXXXXXXooooooooooXXXXXXXXXX......  ",
"  ......XXXXXXXXXXXXXXXXooooXXXXXXXXXXooooooooXXXXXXXXooooXXXXXXXXXXooooXXXXXXXXooooXXXXooooooXXXXooooXXXXXXooooooooooooXXXXXXXX......  ",
"  ......XXXXXXXXXXXXXXXXooooXXXXXXXXXXooooooooXXXXXXXXooooXXXXXXXXXXooooXXXXXXXXooooXXXXooooooXXXXooooXXXXXXooooooooooooXXXXXXXX......  ",
"  ......XXXXXXXXXXXXXXXXooooXXXXXXXXXXooooooooooXXXXXXooooXXXXXXXXXXooooXXXXXXXXooooXXXXooooooXXXXooooXXXXooooXXXXXXXXXXXXXXXXXX......  ",
"  ......XXXXXXXXXXXXXXXXooooXXXXXXXXXXooooooooooXXXXXXooooXXXXXXXXXXooooXXXXXXXXooooXXXXooooooXXXXooooXXXXooooXXXXXXXXXXXXXXXXXX......  ",
"  ......XXXXXXXXXXXXXXXXooooooooXXXXXXooooooooooXXXXXXooooXXXXXXXXXXooooXXXXXXXXooooXXXXooooooooXXooooXXXXooooXXXXXXXXXXXXXXXXXX......  ",
"  ......XXXXXXXXXXXXXXXXooooooooXXXXXXooooooooooXXXXXXooooXXXXXXXXXXooooXXXXXXXXooooXXXXooooooooXXooooXXXXooooXXXXXXXXXXXXXXXXXX......  ",
"  ......XXXXXXXXXXXXXXXXooooooooXXXXooooooXXooooXXXXXXooooXXXXXXXXXXooooXXXXXXXXooooXXXXooooooooXXooooXXXXooooXXXXooooXXXXXXXXXX......  ",
"  ......XXXXXXXXXXXXXXXXooooooooXXXXooooooXXooooXXXXXXooooXXXXXXXXXXooooXXXXXXXXooooXXXXooooooooXXooooXXXXooooXXXXooooXXXXXXXXXX......  ",
"  ......XXXX....XXXXXXXXooooXXXXXXXXooooooXXooooooXXXXooooXXXXXXXXXXooooXXXXXXXXooooXXXXooooooooooooooXXXXooooXXooooooooXXXXXXXX......  ",
"  ......XXXX....XXXXXXXXooooXXXXXXXXooooooXXooooooXXXXooooXXXXXXXXXXooooXXXXXXXXooooXXXXooooooooooooooXXXXooooXXooooooooXXXXXXXX......  ",
"  ......XX..XXXX..XXXXXXooooXXXXXXooooooooooooooooXXXXooooXXXXXXXXXXooooXXXXXXXXooooXXXXooooXXooooooooXXXXooooXXXXooooooXXXXXXXX......  ",
"  ......XX..XXXX..XXXXXXooooXXXXXXooooooooooooooooXXXXooooXXXXXXXXXXooooXXXXXXXXooooXXXXooooXXooooooooXXXXooooXXXXooooooXXXXXXXX......  ",
"  ......XXXXXX..XXXXXXXXooooXXXXXXooooooXXXXXXooooooXXooooooooooXXXXooooooooooXXooooXXXXooooXXooooooooXXXXooooooooooooooXXXXXXXX......  ",
"  ......XXXXXX..XXXXXXXXooooXXXXXXooooooXXXXXXooooooXXooooooooooXXXXooooooooooXXooooXXXXooooXXooooooooXXXXooooooooooooooXXXXXXXX......  ",
"  ......XXXX..XXXXXXXXXXooooXXXXXXooooXXXXXXXXXXooooXXooooooooooXXXXooooooooooXXooooXXXXooooXXXXooooooXXXXXXooooooooooXXXXXXXXXX......  ",
"  ......XXXX..XXXXXXXXXXooooXXXXXXooooXXXXXXXXXXooooXXooooooooooXXXXooooooooooXXooooXXXXooooXXXXooooooXXXXXXooooooooooXXXXXXXXXX......  ",
"  ......XX..XXXXXXXXXXXXXXXXXXXXXXXXXXXXXXXXXXXXXXXXXXXXXXXXXXXXXXXXXXXXXXXXXXXXXXXXXXXXXXXXXXXXXXXXXXXXXXXXXXXXXXXXXXXXXXXXXXXX......  ",
"  ......XX..XXXXXXXXXXXXXXXXXXXXXXXXXXXXXXXXXXXXXXXXXXXXXXXXXXXXXXXXXXXXXXXXXXXXXXXXXXXXXXXXXXXXXXXXXXXXXXXXXXXXXXXXXXXXXXXXXXXX......  ",
"  ......XX........XX..XXXXXXXXXXXXXXXXXXXXXXXXXXXXXXXXXXXXXXXXXXXXXXXXXXXXXXXXXXXXXXXXXXXXXXXXXXXXXXXXXXXXXXXXXXXXXXXXXXXXXXXXXX......  ",
"  ......XX........XX..XXXXXXXXXXXXXXXXXXXXXXXXXXXXXXXXXXXXXXXXXXXXXXXXXXXXXXXXXXXXXXXXXXXXXXXXXXXXXXXXXXXXXXXXXXXXXXXXXXXXXXXXXX......  ",
"  ........XXXXXXXXXXXXXXXXXXXXXXXXXXXXXXXXXXXXXXXXXXXXXXXXXXXXXXXXXXXXXXXXXXXXXXXXXXXXXXXXXXXXXXXXXXXXXXXXXXXXXXXXXXXXXXXXXX..........  ",
"  ........XXXXXXXXXXXXXXXXXXXXXXXXXXXXXXXXXXXXXXXXXXXXXXXXXXXXXXXXXXXXXXXXXXXXXXXXXXXXXXXXXXXXXXXXXXXXXXXXXXXXXXXXXXXXXXXXXX..........  ",
"      ..........................................................................................................................        ",
"      ..........................................................................................................................        ",
"          ..................................................................................................................            ",
"          ..................................................................................................................            ",
"          ..................................................................................................................            ",
"          ..................................................................................................................            ",
"                                                                                                                                        ",
"                                                                                                                                        "
};
