/* XPM */
static char *gameover[] = {
/* columns rows colors chars-per-pixel */
"180 60 2 1 ",
"  c None",
". c #CF2525",
/* pixels */
"                                                                                                                                                                                    ",
"                                                                                                                                                                                    ",
"                                                                                                                                                                                    ",
"                                                                                                                                                                                    ",
"                                                                                                                                                                                    ",
"                                                                                                                                                                                    ",
"                                                                                                                                                                                    ",
"                                                                                                                                                                                    ",
"                                                                                                                                                                                    ",
"                                                                                                                                                                                    ",
"                                                                                                                                                                                    ",
"                                                                                                                                                                                    ",
"                                                                                                                                                                                    ",
"                                                                                                                                                                                    ",
"                                                                                                                                                                                    ",
"                                                                                                                                                                                    ",
"                                                                                                                                                                                    ",
"                                                                                                                                                                                    ",
"        ............            ..........          ....        ....    ..........                  ..........      ....      ....    ..........    ............            ....    ",
"        ............            ..........          ....        ....    ..........                  ..........      ....      ....    ..........    ............            ....    ",
"        ............            ..........          ......    ......    ..........                ..............    ....      ....    ..........    ............            ....    ",
"        ............            ..........          ......    ......    ..........                ..............    ....      ....    ..........    ............            ....    ",
"    ....                    ....          ....      ......    ......    ....                      ....      ....    ....      ....    ....          ....        ....        ....    ",
"    ....                    ....          ....      ......    ......    ....                      ....      ....    ....      ....    ....          ....        ....        ....    ",
"    ....                    ....          ....      ....  ....  ....    ....                      ....      ....    ....      ....    ....          ....        ....        ....    ",
"    ....                    ....          ....      ....  ....  ....    ....                      ....      ....    ....      ....    ....          ....        ....        ....    ",
"    ....                    ....          ....      ....  ....  ....    ....                      ....      ....    ....      ....    ....          ............            ....    ",
"    ....                    ....          ....      ....  ....  ....    ....                      ....      ....    ....      ....    ....          ............            ....    ",
"    ....      ........      ..................      ....        ....    ........                  ....      ....    ....      ....    ........      ............            ....    ",
"    ....      ........      ..................      ....        ....    ........                  ....      ....    ....      ....    ........      ............            ....    ",
"    ....      ........      ..................      ....        ....    ........                  ....      ....    ....      ....    ........      ....    ....            ....    ",
"    ....      ........      ..................      ....        ....    ........                  ....      ....    ....      ....    ........      ....    ....            ....    ",
"    ....          ....      ....          ....      ....        ....    ....                      ....      ....    ......  ......    ....          ....    ....                    ",
"    ....          ....      ....          ....      ....        ....    ....                      ....      ....    ......  ......    ....          ....    ....                    ",
"    ....          ....      ....          ....      ....        ....    ....                      ....      ....      ....  ....      ....          ....    ....                    ",
"    ....          ....      ....          ....      ....        ....    ....                      ....      ....      ....  ....      ....          ....    ....                    ",
"        ..........          ....          ....      ....        ....    ..........                ..............        ......        ..........    ....        ....        ....    ",
"        ..........          ....          ....      ....        ....    ..........                ..............        ......        ..........    ....        ....        ....    ",
"        ..........          ....          ....      ....        ....    ..........                  ..........          ......        ..........    ....        ....        ....    ",
"        ..........          ....          ....      ....        ....    ..........                  ..........          ......        ..........    ....        ....        ....    ",
"                                                                                                                                                                                    ",
"                                                                                                                                                                                    ",
"                                                                                                                                                                                    ",
"                                                                                                                                                                                    ",
"                                                                                                                                                                                    ",
"                                                                                                                                                                                    ",
"                                                                                                                                                                                    ",
"                                                                                                                                                                                    ",
"                                                                                                                                                                                    ",
"                                                                                                                                                                                    ",
"                                                                                                                                                                                    ",
"                                                                                                                                                                                    ",
"                                                                                                                                                                                    ",
"                                                                                                                                                                                    ",
"                                                                                                                                                                                    ",
"                                                                                                                                                                                    ",
"                                                                                                                                                                                    ",
"                                                                                                                                                                                    ",
"                                                                                                                                                                                    ",
"                                                                                                                                                                                    "
};
