/* XPM */
static char *hits[] = {
/* columns rows colors chars-per-pixel */
"88 22 2 1 ",
"  c #F5F5DC",
". c #000000",
/* pixels */
"  ....          ....    ............    ................      ............              ",
"  ....          ....    ............    ................      ............              ",
"  ....          ....    ............    ................    ..............              ",
"  ....          ....    ............    ................    ..............              ",
"  ....          ....        ....              ....          ......                      ",
"  ....          ....        ....              ....          ......                      ",
"  ....          ....        ....              ....          ..........            ....  ",
"  ....          ....        ....              ....          ..........            ....  ",
"  ..................        ....              ....            ..........          ....  ",
"  ..................        ....              ....            ..........          ....  ",
"  ..................        ....              ....                ........              ",
"  ..................        ....              ....                ........              ",
"  ....          ....        ....              ....                    ....              ",
"  ....          ....        ....              ....                    ....              ",
"  ....          ....        ....              ....                    ....        ....  ",
"  ....          ....        ....              ....                    ....        ....  ",
"  ....          ....        ....              ....                    ....        ....  ",
"  ....          ....        ....              ....                    ....        ....  ",
"  ....          ....    ............          ....          ..............              ",
"  ....          ....    ............          ....          ..............              ",
"  ....          ....    ............          ....          ............                ",
"  ....          ....    ............          ....          ............                ",
};
