/* XPM */
static char *hits[] = {
/* columns rows colors chars-per-pixel */
"180 60 2 1 ",
"  c None",
". c black",
/* pixels */
"                                                                                                                                                                                    ",
"                                                                                                                                                                                    ",
"                                                                                                                                                                                    ",
"                                                                                                                                                                                    ",
"                                                                                                                                                                                    ",
"                                                                                                                                                                                    ",
"                                                                                                                                                                                    ",
"                                                                                                                                                                                    ",
"                                                                                                                                                                                    ",
"                                                                                                                                                                                    ",
"                                                                                                                                                                                    ",
"                                                                                                                                                                                    ",
"                                                                                                                                                                                    ",
"                                                                                                                                                                                    ",
"                                                                                                                                                                                    ",
"                                                                                                                                                                                    ",
"                                                                                                                                                                                    ",
"                                                                                                                                                                                    ",
"                                      ....          ....    ............    ................      ............                                                                      ",
"                                      ....          ....    ............    ................      ............                                                                      ",
"                                      ....          ....    ............    ................    ..............                                                                      ",
"                                      ....          ....    ............    ................    ..............                                                                      ",
"                                      ....          ....        ....              ....          ......                                                                              ",
"                                      ....          ....        ....              ....          ......                                                                              ",
"                                      ....          ....        ....              ....          ..........            ....                                                          ",
"                                      ....          ....        ....              ....          ..........            ....                                                          ",
"                                      ..................        ....              ....            ..........          ....                                                          ",
"                                      ..................        ....              ....            ..........          ....                                                          ",
"                                      ..................        ....              ....                ........                                                                      ",
"                                      ..................        ....              ....                ........                                                                      ",
"                                      ....          ....        ....              ....                    ....                                                                      ",
"                                      ....          ....        ....              ....                    ....                                                                      ",
"                                      ....          ....        ....              ....                    ....        ....                                                          ",
"                                      ....          ....        ....              ....                    ....        ....                                                          ",
"                                      ....          ....        ....              ....                    ....        ....                                                          ",
"                                      ....          ....        ....              ....                    ....        ....                                                          ",
"                                      ....          ....    ............          ....          ..............                                                                      ",
"                                      ....          ....    ............          ....          ..............                                                                      ",
"                                      ....          ....    ............          ....          ............                                                                        ",
"                                      ....          ....    ............          ....          ............                                                                        ",
"                                                                                                                                                                                    ",
"                                                                                                                                                                                    ",
"                                                                                                                                                                                    ",
"                                                                                                                                                                                    ",
"                                                                                                                                                                                    ",
"                                                                                                                                                                                    ",
"                                                                                                                                                                                    ",
"                                                                                                                                                                                    ",
"                                                                                                                                                                                    ",
"                                                                                                                                                                                    ",
"                                                                                                                                                                                    ",
"                                                                                                                                                                                    ",
"                                                                                                                                                                                    ",
"                                                                                                                                                                                    ",
"                                                                                                                                                                                    ",
"                                                                                                                                                                                    ",
"                                                                                                                                                                                    ",
"                                                                                                                                                                                    ",
"                                                                                                                                                                                    ",
"                                                                                                                                                                                    "
};
