/* XPM */
static char *lost[] = {
/* columns rows colors chars-per-pixel */
"50 22 2 1 ",
"  c #F5F5DC",
". c #FFE700",
/* pixels */
"..         ........     ......    ...........     ",
"..        ..........  ..........  ...........     ",
"..        ..      ..  ..      ..      ..          ",
"..        ..      ..  ..              ..          ",
"..        ..      ..  ..              ..          ",
"..        ..      ..  ..              ..       ...",
"..        ..      ..  ..              ..       ...",
"..        ..      ..  ..              ..       ...",
"..        ..      ..  ...             ..          ",
"..        ..      ..   ...            ..          ",
"..        ..      ..    ......        ..          ",
"..        ..      ..    ........      ..          ",
"..        ..      ..         ...      ..          ",
"..        ..      ..          ..      ..       ...",
"..        ..      ..          ..      ..       ...",
"..        ..      ..          ..      ..       ...",
"..        ..      ..          ..      ..          ",
"..        ..      ..          ..      ..          ",
"..        ..      ..          ..      ..          ",
"..        ..      ..   ..     ..      ..          ",
"........  ..........   .........      ..          ",
"........   ........      .....        ..          "
};
