/* XPM */
static char *quit[] = {
/* columns rows colors chars-per-pixel */
"136 53 4 1 ",
"  c #F5F5DC",
". c #000000",
"X c #FF0000",
"o c #EDDF55",
/* pixels */
"                                                                                                                                        ",
"                                                                                                                                        ",
"          ....................................................................................................................          ",
"          ....................................................................................................................          ",
"          ....................................................................................................................          ",
"          ....................................................................................................................          ",
"      ............................................................................................................................      ",
"      ............................................................................................................................      ",
"  ........XXXXXXXXXXXXXXXXXXXXXXXXXXXXXXXXXXXXXXXXXXXXXXXXXXXXXXXXXXXXXXXXXXXXXXXXXXXXXXXXXXXXXXXXXXXXXXXXXXXXXXXXXXXXXXXXXXXX........  ",
"  ........XXXXXXXXXXXXXXXXXXXXXXXXXXXXXXXXXXXXXXXXXXXXXXXXXXXXXXXXXXXXXXXXXXXXXXXXXXXXXXXXXXXXXXXXXXXXXXXXXXXXXXXXXXXXXXXXXXXX........  ",
"  ......XXXXXXXXXXXXXXXXXXXXXXXXXXXXXXXXXXXXXXXXXXXXXXXXXXXXXXXXXXXXXXXXXXXXXXXXXXXXXXXXXXXXXXXXXXXXXXXXXXXXXXXXXXXXXXXXXXXXXXXX......  ",
"  ......XXXXXXXXXXXXXXXXXXXXXXXXXXXXXXXXXXXXXXXXXXXXXXXXXXXXXXXXXXXXXXXXXXXXXXXXXXXXXXXXXXXXXXXXXXXXXXXXXXXXXXXXXXXXXXXXXXXXXXXX......  ",
"  ......XXXXXXXXXXXXXXXXXXXXXXXXXXXXXXXXXXXXXXXXXXXXXXXXXXXXXXXXXXXXXXXXXXXXXXXXXXXXXXXXXXXXXXXXXXXXXXXXXXXXXXXXXXXXXXXXXXXXXXXX......  ",
"  ......XXXXXXXXXXXXXXXXXXXXXXXXXXXXXXXXXXXXXXXXXXXXXXXXXXXXXXXXXXXXXXXXXXXXXXXXXXXXXXXXXXXXXXXXXXXXXXXXXXXXXXXXXXXXXXXXXXXXXXXX......  ",
"  ......XXXXXXXXXXXXXXXXXXXXXXXXXXXXXXXXXXXXXXXXXXXXXXXXXXXXXXXXXXXXXXXXXXXXXXXXXXXXXXXXXXXXXXXXXXXXXXXXXXXXXXXXXXXXXXXXXXXXXXXX......  ",
"  ......XXXXXXXXXXXXXXXXXXXXXXXXXXXXXXXXXXXXXXXXXXXXXXXXXXXXXXXXXXXXXXXXXXXXXXXXXXXXXXXXXXXXXXXXXXXXXXXXXXXXXXXXXXXXXXXXXXXXXXXX......  ",
"  ......XXXXXXXXXXXXXXXXXXXXXXXXXXXXXXXXXXXXXXXXXXXXXXXXXXXXXXXXXXXXXXXXXXXXXXXXXXXXXXXXXXXXXXXXXXXXXXXXXXXXXXXXXXXXXXXXXXXXXXXX......  ",
"  ......XXXXXXXXXXXXXXXXXXXXXXXXXXXXXXXXXXXXXXXXXXXXXXXXXXXXXXXXXXXXXXXXXXXXXXXXXXXXXXXXXXXXXXXXXXXXXXXXXXXXXXXXXXXXXXXXXXXXXXXX......  ",
"  ......XXXXXXXXXXXXXXXXXXXXXXXXXXXXXXXXXXXXXXooooooooooXXXXXXXXXXXXXXXXXXXXXXXXXXXXXXXXXXXXXXXXXXXXXXXXXXXXXXXXXXXXXXXXXXXXXXXX......  ",
"  ......XXXXXXXXXXXXXXXXXXXXXXXXXXXXXXXXXXXXXXooooooooooXXXXXXXXXXXXXXXXXXXXXXXXXXXXXXXXXXXXXXXXXXXXXXXXXXXXXXXXXXXXXXXXXXXXXXXX......  ",
"  ......XXXXXXXXXXXXXXXXXXXXXXXXXXXXXXXXXXXXXXooooooooooXXXXXXXXooooXXXXXXXXooooXXXXXXooooXXXXXXooooooooooooooooXXXXXXXXXXXXXXXX......  ",
"  ......XXXXXXXXXXXXXXXXXXXXXXXXXXXXXXXXXXXXXXooooooooooXXXXXXXXooooXXXXXXXXooooXXXXXXooooXXXXXXooooooooooooooooXXXXXXXXXXXXXXXX......  ",
"  ......XXXXXXXXXXXXXXXXXXXXXXXXXXXXXXXXXXooooXXXXXXXXooooXXXXXXooooXXXXXXXXooooXXXXXXooooXXXXXXooooooooooooooooXXXXXXXXXXXXXXXX......  ",
"  ......XXXXXXXXXXXXXXXXXXXXXXXXXXXXXXXXXXooooXXXXXXXXooooXXXXXXooooXXXXXXXXooooXXXXXXooooXXXXXXooooooooooooooooXXXXXXXXXXXXXXXX......  ",
"  ......XXXXXXXXXXXXXXXXXXXXXXXXXXXXXXXXXXooooXXXXXXXXooooXXXXXXooooXXXXXXXXooooXXXXXXooooXXXXXXXXXXXXooooXXXXXXXXXXXXXXXXXXXXXX......  ",
"  ......XXXXXXXXXXXXXXXXXXXXXXXXXXXXXXXXXXooooXXXXXXXXooooXXXXXXooooXXXXXXXXooooXXXXXXooooXXXXXXXXXXXXooooXXXXXXXXXXXXXXXXXXXXXX......  ",
"  ......XXXXXXXXXXXXXXXXXXXXXXXXXXXXXXXXXXooooXXXXXXXXooooXXXXXXooooXXXXXXXXooooXXXXXXooooXXXXXXXXXXXXooooXXXXXXXXXXXXXXXXXXXXXX......  ",
"  ......XXXXXXXXXXXXXXXXXXXXXXXXXXXXXXXXXXooooXXXXXXXXooooXXXXXXooooXXXXXXXXooooXXXXXXooooXXXXXXXXXXXXooooXXXXXXXXXXXXXXXXXXXXXX......  ",
"  ......XXXXXXXXXXXXXXXXXXXXXXXXXXXXXXXXXXooooXXXXXXXXooooXXXXXXooooXXXXXXXXooooXXXXXXooooXXXXXXXXXXXXooooXXXXXXXXXXXXXXXXXXXXXX......  ",
"  ......XXXXXXXXXXXXXXXXXXXXXXXXXXXXXXXXXXooooXXXXXXXXooooXXXXXXooooXXXXXXXXooooXXXXXXooooXXXXXXXXXXXXooooXXXXXXXXXXXXXXXXXXXXXX......  ",
"  ......XXXXXXXXXXXXXXXXXXXXXXXXXXXXXXXXXXooooXXXXXXXXooooXXXXXXooooXXXXXXXXooooXXXXXXooooXXXXXXXXXXXXooooXXXXXXXXXXXXXXXXXXXXXX......  ",
"  ......XXXXXXXXXXXXXXXXXXXXXXXXXXXXXXXXXXooooXXXXXXXXooooXXXXXXooooXXXXXXXXooooXXXXXXooooXXXXXXXXXXXXooooXXXXXXXXXXXXXXXXXXXXXX......  ",
"  ......XXXXXXXXXXXXXXXXXXXXXXXXXXXXXXXXXXooooXXXXXXXXooooXXXXXXooooXXXXXXXXooooXXXXXXooooXXXXXXXXXXXXooooXXXXXXXXXXXXXXXXXXXXXX......  ",
"  ......XXXXXXXXXXXXXXXXXXXXXXXXXXXXXXXXXXooooXXXXXXXXooooXXXXXXooooXXXXXXXXooooXXXXXXooooXXXXXXXXXXXXooooXXXXXXXXXXXXXXXXXXXXXX......  ",
"  ......XXXX....XX......XX....XXXXXXXXXXXXooooXXXXooooXXXXXXXXXXooooXXXXXXXXooooXXXXXXooooXXXXXXXXXXXXooooXXXXXXXXXXXXXXXXXXXXXX......  ",
"  ......XXXX....XX......XX....XXXXXXXXXXXXooooXXXXooooXXXXXXXXXXooooXXXXXXXXooooXXXXXXooooXXXXXXXXXXXXooooXXXXXXXXXXXXXXXXXXXXXX......  ",
"  ......XXXX..XXXX..XXXXXX..XXXXXXXXXXXXXXooooXXXXooooXXXXXXXXXXooooXXXXXXXXooooXXXXXXooooXXXXXXXXXXXXooooXXXXXXXXXXXXXXXXXXXXXX......  ",
"  ......XXXX..XXXX..XXXXXX..XXXXXXXXXXXXXXooooXXXXooooXXXXXXXXXXooooXXXXXXXXooooXXXXXXooooXXXXXXXXXXXXooooXXXXXXXXXXXXXXXXXXXXXX......  ",
"  ......XXXX....XXXX..XXXX..XXXXXXXXXXXXXXXXXXooooXXXXooooXXXXXXXXXXooooooooXXXXXXXXXXooooXXXXXXXXXXXXooooXXXXXXXXXXXXXXXXXXXXXX......  ",
"  ......XXXX....XXXX..XXXX..XXXXXXXXXXXXXXXXXXooooXXXXooooXXXXXXXXXXooooooooXXXXXXXXXXooooXXXXXXXXXXXXooooXXXXXXXXXXXXXXXXXXXXXX......  ",
"  ......XXXX..XXXXXXXX..XX..XXXXXXXXXXXXXXXXXXooooXXXXooooXXXXXXXXXXooooooooXXXXXXXXXXooooXXXXXXXXXXXXooooXXXXXXXXXXXXXXXXXXXXXX......  ",
"  ......XXXX..XXXXXXXX..XX..XXXXXXXXXXXXXXXXXXooooXXXXooooXXXXXXXXXXooooooooXXXXXXXXXXooooXXXXXXXXXXXXooooXXXXXXXXXXXXXXXXXXXXXX......  ",
"  ......XXXX....XX......XX....XX..XXXXXXXXXXXXXXXXXXXXXXXXXXXXXXXXXXXXXXXXXXXXXXXXXXXXXXXXXXXXXXXXXXXXXXXXXXXXXXXXXXXXXXXXXXXXXX......  ",
"  ......XXXX....XX......XX....XX..XXXXXXXXXXXXXXXXXXXXXXXXXXXXXXXXXXXXXXXXXXXXXXXXXXXXXXXXXXXXXXXXXXXXXXXXXXXXXXXXXXXXXXXXXXXXXX......  ",
"  ........XXXXXXXXXXXXXXXXXXXXXXXXXXXXXXXXXXXXXXXXXXXXXXXXXXXXXXXXXXXXXXXXXXXXXXXXXXXXXXXXXXXXXXXXXXXXXXXXXXXXXXXXXXXXXXXXXX..........  ",
"  ........XXXXXXXXXXXXXXXXXXXXXXXXXXXXXXXXXXXXXXXXXXXXXXXXXXXXXXXXXXXXXXXXXXXXXXXXXXXXXXXXXXXXXXXXXXXXXXXXXXXXXXXXXXXXXXXXXX..........  ",
"      ..........................................................................................................................        ",
"      ..........................................................................................................................        ",
"          ..................................................................................................................            ",
"          ..................................................................................................................            ",
"          ..................................................................................................................            ",
"          ..................................................................................................................            ",
"                                                                                                                                        "
};
