/* XPM */
static char *target[] = {
/* columns rows colors chars-per-pixel */
"75 60 5 1 ",
"  c #F5F5DC",
". c #000000",
"X c #006116",
"o c #FF0000",
"O c #AFB940",
/* pixels */
"                   .....................................                   ",
"                  .......................................                  ",
"                 ...OOOOOOOOOOOOOOOOOOOOOOOOOOOOOOOOOOO...                 ",
"                ...OOOOOOOOOOOOOOOOOOOOOOOOOOOOOOOOOOOOO...                ",
"               ...OOOOOOOOOOOOOOOOOOOOOOOOOOOOOOOOOOOOOOO...               ",
"              ...OOOOOOOOOOOOOOOOOOOOOOOOOOOOOOOOOOOOOOOOO...              ",
"             ...OOOOOOOOOOOO.OOOOOOOOOOOOOOOOO.OOOOOOOOOOOO...             ",
"            ...OOOOOOOOOOOOO.OOOOOOOOOOOOOOOOO.OOOOOOOOOOOOO...            ",
"           ...OOOOOOOO...............................OOOOOOOO...           ",
"          ...OOOOOOOO.................................OOOOOOOO...          ",
"         ...OOOOOOOO...o.XXXXXXXXXXXXXXXXXXXXXXXX.oo...OOOOOOOO...         ",
"        ...OOOOOOOO...oo.XXXXXXXXXXXXXXXXXXXXXXXX.ooo...OOOOOOOO...        ",
"       ...OOOOOOOO...ooo.XXXXXXXXXXXXXXXXXXXXXXXX.oooo...OOOOOOOO...       ",
"      ...OOOOOOOO...oooo.XXXXXXXXXXXXXXXXXXXXXXXX.ooooo...OOOOOOOO...      ",
"     ...OOOOOOOO...ooooo.XXXXXXXXXXXXXXXXXXXXXXXX.oooooo...OOOOOOOO...     ",
"    ...OOOOOOOO...oooooo.XXXXXXXXXXXXXXXXXXXXXXXX.ooooooo...OOOOOOOO...    ",
"   ...OOOOOOOO...ooooooo.XXXXXXXXXXXXXXXXXXXXXXXX.oooooooo...OOOOOOOO...   ",
"  ...OOOOOOOO...ooooooo............................oooooooo...OOOOOOOO...  ",
" ...OOOOOOOO...ooooooo..............................oooooooo...OOOOOOOO... ",
"...OOOOOOOO...ooooooo...OOOO.OOOOOOOOOOOOOOOOO.OOO...oooooooo...OOOOOOOO...",
"..OOOOOOOO...ooooooo...OOOOO.OOOOOOOOOOOOOOOOO.OOOO...oooooooo...OOOOOOOO..",
"..OOOOOOOO..ooooooo...OOOOOOOOOOOOOOOOOOOOOOOOOOOOOO...oooooooo..OOOOOOOO..",
"..OOOOOOOO...........OOOOOOOOOOOOOOOOOOOOOOOOOOOOOOOO............OOOOOOOO..",
"..OOOOOOOO..XXXXXXX..OOOOOOOOOOOOOOOOOOOOOOOOOOOOOOOO..XXXXXXXX..OOOOOOOO..",
"..OOOOOOOO..XXXXXXX..OOOOOOOOOOOOOOOOOOOOOOOOOOOOOOOO..XXXXXXXX..OOOOOOOO..",
"..OOOOOO....XXXXXXX....OOOOOOO...............OOOOOO....XXXXXXXX....OOOOOO..",
"..OOOOOOOO..XXXXXXX..OOOOOOOO.ooooooooooooooo.OOOOOOO..XXXXXXXX..OOOOOOOO..",
"..OOOOOOOO..XXXXXXX..OOOOOOO.ooooooooooooooooo.OOOOOO..XXXXXXXX..OOOOOOOO..",
"..OOOOOOOO..XXXXXXX..OOOOOOO.ooooooooooooooooo.OOOOOO..XXXXXXXX..OOOOOOOO..",
"..OOOOOOOO..XXXXXXX..OOOOOOO.ooooooooooooooooo.OOOOOO..XXXXXXXX..OOOOOOOO..",
"..OOOOOOOO..XXXXXXX..OOOOOOO.ooooooooooooooooo.OOOOOO..XXXXXXXX..OOOOOOOO..",
"..OOOOOOOO..XXXXXXX..OOOOOOO.ooooooooooooooooo.OOOOOO..XXXXXXXX..OOOOOOOO..",
"..OOOOOOOO..XXXXXXX..OOOOOOO.ooooooooooooooooo.OOOOOO..XXXXXXXX..OOOOOOOO..",
"..OOOOOOOO..XXXXXXX..OOOOOOO.ooooooooooooooooo.OOOOOO..XXXXXXXX..OOOOOOOO..",
"..OOOOOOOO..XXXXXXX..OOOOOOO.ooooooooooooooooo.OOOOOO..XXXXXXXX..OOOOOOOO..",
"..OOOOOOOO..XXXXXXX..OOOOOOOO.ooooooooooooooo.OOOOOOO..XXXXXXXX..OOOOOOOO..",
"..OOOOOO....XXXXXXX....OOOOOOO...............OOOOOO....XXXXXXXX....OOOOOO..",
"..OOOOOOOO..XXXXXXX..OOOOOOOOOOOOOOOOOOOOOOOOOOOOOOOO..XXXXXXXX..OOOOOOOO..",
"..OOOOOOOO..XXXXXXX..OOOOOOOOOOOOOOOOOOOOOOOOOOOOOOOO..XXXXXXXX..OOOOOOOO..",
"..OOOOOOOO...........OOOOOOOOOOOOOOOOOOOOOOOOOOOOOOOO............OOOOOOOO..",
"..OOOOOOOO..ooooooo...OOOOOO.OOOOOOOOOOOOOOOOO.OOOOO...oooooooo..OOOOOOOO..",
"..OOOOOOOO...ooooooo...OOOOO.OOOOOOOOOOOOOOOOO.OOOO...oooooooo...OOOOOOOO..",
"...OOOOOOOO...ooooooo................................oooooooo...OOOOOOOO...",
" ...OOOOOOOO...ooooooo..............................oooooooo...OOOOOOOO... ",
"  ...OOOOOOOO...ooooooo.XXXXXXXXXXXXXXXXXXXXXXXXXX.oooooooo...OOOOOOOO...  ",
"   ...OOOOOOOO...oooooo.XXXXXXXXXXXXXXXXXXXXXXXXXX.ooooooo...OOOOOOOO...   ",
"    ...OOOOOOOO...ooooo.XXXXXXXXXXXXXXXXXXXXXXXXXX.oooooo...OOOOOOOO...    ",
"     ...OOOOOOOO...oooo.XXXXXXXXXXXXXXXXXXXXXXXXXX.ooooo...OOOOOOOO...     ",
"      ...OOOOOOOO.........................................OOOOOOOO...      ",
"       ...OOOOOOOO.......................................OOOOOOOO...       ",
"        ...OOOOOOOOOOOOOOOOO.OOOOOOOOOOOOOOOOO.OOOOOOOOOOOOOOOOO...        ",
"         ...OOOOOOOOOOOOOOOO.OOOOOOOOOOOOOOOOO.OOOOOOOOOOOOOOOO...         ",
"          ...OOOOOOOOOOOOOOOOOOOOOOOOOOOOOOOOOOOOOOOOOOOOOOOOO...          ",
"           ...OOOOOOOOOOOOOOOOOOOOOOOOOOOOOOOOOOOOOOOOOOOOOOO...           ",
"            ...OOOOOOOOOOOOOOOOOOOOOOOOOOOOOOOOOOOOOOOOOOOOO...            ",
"             ...OOOOOOOOOOOOOOOOOOOOOOOOOOOOOOOOOOOOOOOOOOO...             ",
"              ...OOOOOOOOOOOOOOOOOOOOOOOOOOOOOOOOOOOOOOOOO...              ",
"               ...OOOOOOOOOOOOOOOOOOOOOOOOOOOOOOOOOOOOOOO...               ",
"                ...........................................                ",
"                 .........................................                 "
};
