/* XPM */
static char *target[] = {
/* columns rows colors chars-per-pixel */
"75 60 4 1 ",
"  c #000000",
". c #FF0000",
"X c #FFE700",
"o c #F5F5DC",
/* pixels */
"ooooooooooooooooooo                                     ooooooooooooooooooo",
"oooooooooooooooooo                                       oooooooooooooooooo",
"ooooooooooooooooo   ...................................   ooooooooooooooooo",
"oooooooooooooooo   .....................................   oooooooooooooooo",
"ooooooooooooooo   .......................................   ooooooooooooooo",
"oooooooooooooo   .........................................   oooooooooooooo",
"ooooooooooooo   ...........................................   ooooooooooooo",
"oooooooooooo   .............................................   oooooooooooo",
"ooooooooooo   ........                               ........   ooooooooooo",
"oooooooooo   ........                                 ........   oooooooooo",
"ooooooooo   ........   XXXXXXXXXXXXXXXXXXXXXXXXXXXXX   ........   ooooooooo",
"oooooooo   ........   XXXXXXXXXXXXXXXXXXXXXXXXXXXXXXX   ........   oooooooo",
"ooooooo   ........   XXXXXXXXXXXXXXXXXXXXXXXXXXXXXXXXX   ........   ooooooo",
"oooooo   ........   XXXXXXXXXXXXXXXXXXXXXXXXXXXXXXXXXXX   ........   oooooo",
"ooooo   ........   XXXXXXXXXXXXXXXXXXXXXXXXXXXXXXXXXXXXX   ........   ooooo",
"oooo   ........   XXXXXXXXXXXXXXXXXXXXXXXXXXXXXXXXXXXXXXX   ........   oooo",
"ooo   ........   XXXXXXXXXXXXXXXXXXXXXXXXXXXXXXXXXXXXXXXXX   ........   ooo",
"oo   ........   XXXXXXX                            XXXXXXXX   ........   oo",
"o   ........   XXXXXXX                              XXXXXXXX   ........   o",
"   ........   XXXXXXX   ..........................   XXXXXXXX   ........   ",
"  ........   XXXXXXX   ............................   XXXXXXXX   ........  ",
"  ........  XXXXXXX   ..............................   XXXXXXXX  ........  ",
"  ........  XXXXXXX  ................................  XXXXXXXX  ........  ",
"  ........  XXXXXXX  ................................  XXXXXXXX  ........  ",
"  ........  XXXXXXX  ................................  XXXXXXXX  ........  ",
"  ........  XXXXXXX  .........               ........  XXXXXXXX  ........  ",
"  ........  XXXXXXX  ........ XXXXXXXXXXXXXXX .......  XXXXXXXX  ........  ",
"  ........  XXXXXXX  ....... XXXXXXXXXXXXXXXXX ......  XXXXXXXX  ........  ",
"  ........  XXXXXXX  ....... XXXXXXXXXXXXXXXXX ......  XXXXXXXX  ........  ",
"  ........  XXXXXXX  ....... XXXXXXXXXXXXXXXXX ......  XXXXXXXX  ........  ",
"  ........  XXXXXXX  ....... XXXXXXXXXXXXXXXXX ......  XXXXXXXX  ........  ",
"  ........  XXXXXXX  ....... XXXXXXXXXXXXXXXXX ......  XXXXXXXX  ........  ",
"  ........  XXXXXXX  ....... XXXXXXXXXXXXXXXXX ......  XXXXXXXX  ........  ",
"  ........  XXXXXXX  ....... XXXXXXXXXXXXXXXXX ......  XXXXXXXX  ........  ",
"  ........  XXXXXXX  ....... XXXXXXXXXXXXXXXXX ......  XXXXXXXX  ........  ",
"  ........  XXXXXXX  ........ XXXXXXXXXXXXXXX .......  XXXXXXXX  ........  ",
"  ........  XXXXXXX  .........               ........  XXXXXXXX  ........  ",
"  ........  XXXXXXX  ................................  XXXXXXXX  ........  ",
"  ........  XXXXXXX  ................................  XXXXXXXX  ........  ",
"  ........  XXXXXXX  ................................  XXXXXXXX  ........  ",
"  ........  XXXXXXX   ..............................   XXXXXXXX  ........  ",
"  ........   XXXXXXX   ............................   XXXXXXXX   ........  ",
"   ........   XXXXXXX                                XXXXXXXX   ........   ",
"o   ........   XXXXXXX                              XXXXXXXX   ........   o",
"oo   ........   XXXXXXXXXXXXXXXXXXXXXXXXXXXXXXXXXXXXXXXXXXX   ........   oo",
"ooo   ........   XXXXXXXXXXXXXXXXXXXXXXXXXXXXXXXXXXXXXXXXX   ........   ooo",
"oooo   ........   XXXXXXXXXXXXXXXXXXXXXXXXXXXXXXXXXXXXXXX   ........   oooo",
"ooooo   ........   XXXXXXXXXXXXXXXXXXXXXXXXXXXXXXXXXXXXX   ........   ooooo",
"oooooo   ........                                         ........   oooooo",
"ooooooo   ........                                       ........   ooooooo",
"oooooooo   .....................................................   oooooooo",
"ooooooooo   ...................................................   ooooooooo",
"oooooooooo   .................................................   oooooooooo",
"ooooooooooo   ...............................................   ooooooooooo",
"oooooooooooo   .............................................   oooooooooooo",
"ooooooooooooo   ...........................................   ooooooooooooo",
"oooooooooooooo   .........................................   oooooooooooooo",
"ooooooooooooooo   .......................................   ooooooooooooooo",
"oooooooooooooooo                                           oooooooooooooooo",
"ooooooooooooooooo                                         ooooooooooooooooo"
};
