/* XPM */
static char *timer[] = {
/* columns rows colors chars-per-pixel */
"102 22 2 1 ",
"  c #F5F5DC",
". c #000000",
/* pixels */
"  ................    ............    ....        ....    ............    ............                ",
"  ................    ............    ....        ....    ............    ............                ",
"  ................    ............    ......    ......    ............    ............                ",
"  ................    ............    ......    ......    ............    ............                ",
"        ....              ....        ......    ......    ....            ....        ....            ",
"        ....              ....        ......    ......    ....            ....        ....            ",
"        ....              ....        ....  ....  ....    ....            ....        ....            ",
"        ....              ....        ....  ....  ....    ....            ....        ....            ",
"        ....              ....        ....  ....  ....    ....            ............          ....  ",
"        ....              ....        ....  ....  ....    ....            ............          ....  ",
"        ....              ....        ....        ....    ........        ............          ....  ",
"        ....              ....        ....        ....    ........        ............          ....  ",
"        ....              ....        ....        ....    ........        ....    ....                ",
"        ....              ....        ....        ....    ........        ....    ....                ",
"        ....              ....        ....        ....    ....            ....    ....                ",
"        ....              ....        ....        ....    ....            ....    ....                ",
"        ....              ....        ....        ....    ....            ....    ....          ....  ",
"        ....              ....        ....        ....    ....            ....    ....          ....  ",
"        ....          ............    ....        ....    ............    ....        ....      ....  ",
"        ....          ............    ....        ....    ............    ....        ....      ....  ",
"        ....          ............    ....        ....    ............    ....        ....            ",
"        ....          ............    ....        ....    ............    ....        ....            ",
};
