/* XPM */
static char *timer[] = {
/* columns rows colors chars-per-pixel */
"180 60 2 1 ",
"  c None",
". c #CDB002",
/* pixels */
"                                                                                                                                                                                    ",
"                                                                                                                                                                                    ",
"                                                                                                                                                                                    ",
"                                                                                                                                                                                    ",
"                                                                                                                                                                                    ",
"                                                                                                                                                                                    ",
"                                                                                                                                                                                    ",
"                                                                                                                                                                                    ",
"                                                                                                                                                                                    ",
"                                                                                                                                                                                    ",
"                                                                                                                                                                                    ",
"                                                                                                                                                                                    ",
"                                                                                                                                                                                    ",
"                                                                                                                                                                                    ",
"                                                                                                                                                                                    ",
"                                                                                                                                                                                    ",
"                                                                                                                                                                                    ",
"                                                                                                                                                                                    ",
"                                        ................    ............    ....        ....    ............    ............                                                        ",
"                                        ................    ............    ....        ....    ............    ............                                                        ",
"                                        ................    ............    ......    ......    ............    ............                                                        ",
"                                        ................    ............    ......    ......    ............    ............                                                        ",
"                                              ....              ....        ......    ......    ....            ....        ....                                                    ",
"                                              ....              ....        ......    ......    ....            ....        ....                                                    ",
"                                              ....              ....        ....  ....  ....    ....            ....        ....                                                    ",
"                                              ....              ....        ....  ....  ....    ....            ....        ....                                                    ",
"                                              ....              ....        ....  ....  ....    ....            ............          ....                                          ",
"                                              ....              ....        ....  ....  ....    ....            ............          ....                                          ",
"                                              ....              ....        ....        ....    ........        ............          ....                                          ",
"                                              ....              ....        ....        ....    ........        ............          ....                                          ",
"                                              ....              ....        ....        ....    ........        ....    ....                                                        ",
"                                              ....              ....        ....        ....    ........        ....    ....                                                        ",
"                                              ....              ....        ....        ....    ....            ....    ....                                                        ",
"                                              ....              ....        ....        ....    ....            ....    ....                                                        ",
"                                              ....              ....        ....        ....    ....            ....    ....          ....                                          ",
"                                              ....              ....        ....        ....    ....            ....    ....          ....                                          ",
"                                              ....          ............    ....        ....    ............    ....        ....      ....                                          ",
"                                              ....          ............    ....        ....    ............    ....        ....      ....                                          ",
"                                              ....          ............    ....        ....    ............    ....        ....                                                    ",
"                                              ....          ............    ....        ....    ............    ....        ....                                                    ",
"                                                                                                                                                                                    ",
"                                                                                                                                                                                    ",
"                                                                                                                                                                                    ",
"                                                                                                                                                                                    ",
"                                                                                                                                                                                    ",
"                                                                                                                                                                                    ",
"                                                                                                                                                                                    ",
"                                                                                                                                                                                    ",
"                                                                                                                                                                                    ",
"                                                                                                                                                                                    ",
"                                                                                                                                                                                    ",
"                                                                                                                                                                                    ",
"                                                                                                                                                                                    ",
"                                                                                                                                                                                    ",
"                                                                                                                                                                                    ",
"                                                                                                                                                                                    ",
"                                                                                                                                                                                    ",
"                                                                                                                                                                                    ",
"                                                                                                                                                                                    ",
"                                                                                                                                                                                    "
};
