/* XPM */
static char *you_fail[] = {
/* columns rows colors chars-per-pixel */
"111 22 4 1 ",
"  c #F5F5DC",
". c #000000",
"X c #FF0000",
"o c #FCE400",
/* pixels */
"   ..          ..   ........    ..        ..             ............     ....      ..  ..         ....        ",
"   ...        ...  ..........   ..        ..             ............    ......     ..  ..         ....        ",
"    ...      ...  ...      ...  ..        ..             ..             ...  ...        ..         ....        ",
"     ...    ...   ..        ..  ..        ..             ..            ...    ...   ..  ..         ....        ",
"      ...  ...    ..        ..  ..        ..             ..           ...      ...  ..  ..         ....        ",
"       ......     ..        ..  ..        ..             ..           ..        ..  ..  ..         ....        ",
"        ....      ..        ..  ..        ..             .........    ..        ..  ..  ..         ....        ",
"         ..       ..        ..  ..        ..             .........    ..        ..  ..  ..         ....        ",
"  ...........................................................................................................  ",
" .ooooooo..ooooooo..oooooooo..oo..oooooooo..ooooooooooooo..XXXXXXXXXXX..XXXXXXXX..XX..XX..XXXXXXXXX....XXXXXX. ",
".oooooooo..ooooooo..oooooooo..oo..oooooooo..ooooooooooooo..XXXXXXXXXXX..XXXXXXXX..XX..XX..XXXXXXXXX....XXXXXXX.",
".oooooooo..ooooooo..oooooooo..oo..oooooooo..ooooooooooooo..XXXXXXXXXXX..XXXXXXXX..XX..XX..XXXXXXXXX....XXXXXXX.",
".oooooooo..ooooooo..oooooooo..oo..oooooooo..ooooooooooooo..XXXXXXXXXXX..X......X..XX..XX..XXXXXXXXX....XXXXXXX.",
".o...........................................................................................................X.",
"..       ..       ..        ..  ..        ..             ..           ....    ....  ..  ..         ....      ..",
".        ..       ..        ..  ..        ..             ..           ..        ..  ..  ..         ....       .",
"         ..       ..        ..  ..        ..             ..           ..        ..  ..  ..         ....        ",
"         ..       ..        ..  ...      ...             ..           ..        ..  ..  ..          ..         ",
"         ..       ..        ..   ...    ...              ..           ..        ..  ..  ..                     ",
"         ..       ...      ...    ...  ...               ..           ..        ..  ..  ..          ..         ",
"         ..        ..........      ......                ..           ..        ..  ..  .........  ....        ",
"         ..         ........        ....                 ..           ..        ..  ..  .........   ..         "
};
